<svg version="1.1" id="Layer_1" xmlns="http://www.w3.org/2000/svg" xmlns:xlink="http://www.w3.org/1999/xlink" x="0px" y="0px"
	 width="100%" viewBox="0 0 1024 1024" enable-background="new 0 0 1024 1024" xml:space="preserve">
<path fill="#232142" opacity="1.000000" stroke="none" 
	d="
M601.000000,1025.000000 
	C400.666656,1025.000000 200.833328,1025.000000 1.000000,1025.000000 
	C1.000000,683.666687 1.000000,342.333344 1.000000,1.000000 
	C342.333344,1.000000 683.666687,1.000000 1025.000000,1.000000 
	C1025.000000,342.333344 1025.000000,683.666687 1025.000000,1025.000000 
	C883.833313,1025.000000 742.666687,1025.000000 601.000000,1025.000000 
M443.026947,396.000336 
	C443.026947,396.000336 443.082611,396.036285 442.315338,396.284454 
	C441.877472,397.927826 441.071991,399.568420 441.059570,401.214996 
	C440.955536,415.010895 441.047607,428.808289 440.934387,442.604034 
	C440.919250,444.447113 440.087006,446.283508 439.075500,447.772339 
	C428.360596,431.747650 417.661835,415.712097 406.901245,399.718140 
	C406.005981,398.387451 404.695862,396.324066 403.573303,396.320709 
	C395.699493,396.297089 387.824310,396.725494 379.415344,397.643250 
	C379.282104,398.287231 379.032837,398.931091 379.032318,399.575165 
	C379.008118,428.144440 378.993652,456.713776 379.042389,485.282959 
	C379.044495,486.522156 379.651703,487.760315 380.549835,489.629822 
	C388.298126,489.629822 396.046448,489.629822 404.237976,489.629822 
	C404.237976,470.549683 404.237976,451.910278 404.237976,432.194794 
	C416.596191,450.918091 428.360413,468.644928 439.984436,486.463287 
	C441.604645,488.946899 443.301941,490.077789 446.366150,489.967773 
	C452.854218,489.734955 459.357819,489.934570 466.639709,489.748535 
	C467.088867,488.605164 467.927399,487.462738 467.930298,486.318237 
	C468.003204,457.513519 468.015259,428.708466 467.899933,399.904053 
	C467.894775,398.616577 466.591431,397.334290 465.968567,396.026398 
	C465.968567,396.026398 465.985016,396.103912 465.396851,395.508270 
	C457.937225,395.694183 450.477570,395.880066 443.026947,396.000336 
M588.560486,488.373230 
	C588.706177,481.629761 588.968994,474.885864 588.944702,468.143005 
	C588.933716,465.095612 588.351624,462.050262 587.823792,458.265198 
	C587.893738,457.508209 587.963745,456.751190 588.573730,455.363983 
	C588.705261,444.425262 588.866699,433.486664 588.907776,422.547607 
	C588.910889,421.732239 588.051880,420.913696 586.708679,420.140503 
	C580.064575,420.122528 573.420471,420.104584 565.978882,420.479919 
	C565.653198,421.708099 565.047241,422.935455 565.043701,424.164581 
	C564.985229,444.433777 564.979126,464.703339 565.054993,484.972443 
	C565.060059,486.338898 565.811218,487.702545 566.813477,489.623566 
	C573.880188,489.415619 580.946838,489.207672 588.560486,488.373230 
M654.037231,394.492889 
	C653.693115,396.197693 653.080200,397.898010 653.051941,399.608063 
	C652.937256,406.542664 653.105042,413.482910 652.924255,420.414734 
	C652.882263,422.027283 651.879333,423.614777 650.699158,425.036591 
	C639.978699,416.892914 627.508179,417.396973 617.547424,426.376434 
	C602.292480,440.128540 601.420227,468.742004 615.949768,483.235809 
	C623.602600,490.869843 632.780090,493.984863 643.250671,490.278168 
	C647.452820,488.790558 651.140381,485.849335 654.995789,483.608307 
	C655.280273,485.898834 655.576965,488.288208 655.967407,491.432556 
	C663.104980,490.571686 669.727722,489.772919 677.040161,488.651093 
	C677.352478,487.929199 677.936707,487.207764 677.937927,486.485352 
	C677.986694,456.784119 678.005737,427.082703 677.897522,397.381836 
	C677.893494,396.262695 676.590698,395.148285 674.970581,394.077423 
	C668.267334,394.108551 661.564148,394.139679 654.037231,394.492889 
M459.500000,524.785217 
	C392.929596,524.785217 326.359192,524.785217 259.700317,524.785217 
	C259.700317,566.027771 259.700317,606.414429 259.700317,646.822998 
	C428.488434,646.822998 596.866882,646.822998 765.311523,646.822998 
	C765.311523,605.997681 765.311523,565.601257 765.311523,525.344299 
	C764.607300,525.092773 764.295227,524.883545 763.982971,524.883423 
	C662.821960,524.840942 561.661011,524.812927 459.500000,524.785217 
M262.093323,433.633514 
	C257.162628,466.433472 279.741577,493.376068 313.529968,491.945801 
	C333.703705,491.091858 349.756775,479.952118 357.139679,460.941620 
	C364.121033,442.965118 359.028076,421.172638 345.730865,407.835266 
	C323.281158,385.317749 271.795502,388.084656 262.093323,433.633514 
M759.033325,435.527924 
	C748.874084,420.516907 732.199646,415.064484 716.428772,421.596558 
	C699.888184,428.447449 691.649719,444.666687 695.036133,463.712921 
	C697.929871,479.987335 711.801819,491.647858 728.850769,492.136780 
	C746.202148,492.634338 759.385986,484.149200 762.814636,469.862579 
	C757.142639,469.480927 751.550903,469.043976 745.950867,468.795807 
	C745.145935,468.760132 744.200317,469.513733 743.489746,470.105988 
	C736.983459,475.528839 729.694763,475.476868 722.428589,472.491455 
	C718.271912,470.783661 716.214722,466.958160 715.836243,461.973114 
	C732.131165,461.973114 747.924927,461.973114 763.899231,461.973114 
	C765.089172,452.704865 763.618591,444.206177 759.033325,435.527924 
M496.711426,426.194733 
	C484.188110,437.138336 487.146454,454.266632 502.602325,459.838165 
	C506.492828,461.240662 510.562469,462.143616 514.542480,463.301300 
	C517.563416,464.179993 520.715149,464.797302 523.526855,466.127075 
	C524.927673,466.789612 526.635498,468.878662 526.513672,470.161835 
	C526.359924,471.781067 524.799927,473.795593 523.286926,474.660309 
	C518.242981,477.543182 511.994568,475.635162 508.406403,470.669434 
	C507.714905,469.712433 506.593872,468.439789 505.632599,468.406036 
	C499.687073,468.197235 493.730499,468.301117 487.798157,468.301117 
	C487.633636,477.005646 493.629242,485.415100 502.355469,488.990692 
	C511.589233,492.774231 521.190613,493.232239 530.742676,490.683655 
	C543.602234,487.252625 550.457947,473.818115 545.810425,461.624268 
	C542.608093,453.222351 535.420410,449.999817 527.376770,448.058685 
	C522.861267,446.969025 518.235352,446.197021 513.879578,444.658081 
	C512.277710,444.092133 510.249512,441.661987 510.345184,440.209229 
	C510.444733,438.697052 512.624756,436.712372 514.332397,436.032104 
	C519.084839,434.138947 523.085510,435.713104 526.075195,439.805359 
	C526.767212,440.752625 527.843201,442.042603 528.786377,442.080414 
	C534.215637,442.297882 539.658081,442.186340 545.215332,442.186340 
	C545.138977,434.733032 542.120728,429.494507 536.687805,425.538330 
	C525.881775,417.669495 508.224762,417.790314 496.711426,426.194733 
M589.141296,404.185822 
	C588.773682,395.840576 583.380310,391.111328 575.170044,391.935028 
	C568.344177,392.619781 563.974976,398.310852 564.976685,405.212341 
	C565.767334,410.660095 570.646606,414.836945 576.457703,415.040680 
	C583.139404,415.274933 587.433289,411.835938 589.141296,404.185822 
z"/>
<path fill="#D51D25" opacity="1.000000" stroke="none" 
	d="
M460.000000,524.784851 
	C561.661011,524.812927 662.821960,524.840942 763.982971,524.883423 
	C764.295227,524.883545 764.607300,525.092773 765.311523,525.344299 
	C765.311523,565.601257 765.311523,605.997681 765.311523,646.822998 
	C596.866882,646.822998 428.488434,646.822998 259.700317,646.822998 
	C259.700317,606.414429 259.700317,566.027771 259.700317,524.785217 
	C326.359192,524.785217 392.929596,524.785217 460.000000,524.784851 
M595.129456,579.740784 
	C597.877869,570.951599 600.626282,562.162476 603.481628,553.031128 
	C597.581726,553.031128 592.501282,553.031128 587.721680,553.031128 
	C583.765808,566.891357 579.917297,580.375244 575.725586,595.061890 
	C571.127441,580.072266 566.955383,566.471558 562.853638,553.100220 
	C557.908752,553.100220 553.616455,553.100220 549.265198,553.100220 
	C545.062195,567.099304 540.922363,580.887695 536.355103,596.099915 
	C531.773071,580.789795 527.606995,566.869446 523.445557,552.964355 
	C518.236389,552.964355 513.437012,552.964355 508.069427,552.964355 
	C514.898926,575.145996 521.627625,597.000427 528.449280,619.156677 
	C532.072693,619.156677 535.559143,618.964966 539.013977,619.213318 
	C542.150757,619.438843 543.504456,618.659119 544.340515,615.222595 
	C547.546570,602.044067 551.279785,588.993713 554.816223,575.895569 
	C555.272034,575.887390 555.727844,575.879272 556.183655,575.871094 
	C560.547424,590.274231 564.911255,604.677307 569.261353,619.035217 
	C573.901001,619.035217 578.207214,619.035217 582.849854,619.035217 
	C586.889404,606.166992 590.914978,593.343262 595.129456,579.740784 
M395.753479,571.731995 
	C392.203217,566.502625 388.696564,561.242615 385.068878,556.067505 
	C384.262909,554.917725 383.085358,553.291748 381.984802,553.213806 
	C377.429321,552.891174 372.837677,553.078430 368.320190,553.078430 
	C368.320190,575.473816 368.320190,597.067627 368.320190,618.847229 
	C373.231628,618.847229 377.924652,618.847229 383.216278,618.847229 
	C383.216278,604.751404 383.216278,590.989807 383.216278,576.162659 
	C392.439087,590.087219 400.940552,602.998901 409.562958,615.829285 
	C410.478790,617.192078 412.017273,618.885132 413.414795,619.033691 
	C417.466187,619.464417 421.592957,619.186279 425.685608,619.186279 
	C425.685608,596.832947 425.685608,575.120178 425.685608,553.409180 
	C420.809326,553.409180 416.255951,553.409180 411.237305,553.409180 
	C411.237305,566.766418 411.237305,579.791016 411.237305,592.815613 
	C410.930664,592.915466 410.624023,593.015381 410.317383,593.115234 
	C405.582153,586.195679 400.846954,579.276123 395.753479,571.731995 
M484.430298,619.197754 
	C487.025665,619.197754 489.621033,619.197754 492.322235,619.197754 
	C492.322235,614.415222 492.322235,610.327820 492.322235,605.706787 
	C483.144775,605.706787 474.229492,605.706787 465.211182,605.706787 
	C465.211182,600.932983 465.211182,596.701599 465.211182,592.034973 
	C473.583557,592.034973 481.645294,592.034973 489.604767,592.034973 
	C489.604767,587.486938 489.604767,583.382812 489.604767,578.781128 
	C481.279114,578.781128 473.210327,578.781128 465.202209,578.781128 
	C465.202209,574.525696 465.202209,570.785339 465.202209,566.638062 
	C474.395233,566.638062 483.293243,566.638062 492.333496,566.638062 
	C492.333496,561.967712 492.333496,557.718445 492.333496,553.336243 
	C478.163025,553.336243 464.278381,553.336243 450.304413,553.336243 
	C450.304413,575.349365 450.304413,597.071350 450.304413,619.197144 
	C461.535217,619.197144 472.490784,619.197144 484.430298,619.197754 
M638.696289,552.096924 
	C626.475586,553.583740 619.262451,559.442932 618.062378,568.857666 
	C616.776245,578.947327 621.375244,585.054321 633.867859,589.877502 
	C637.742249,591.373352 641.708130,592.687622 645.435242,594.491821 
	C648.321960,595.889343 651.527405,598.276978 649.994263,601.737549 
	C648.920227,604.162048 645.885803,606.471863 643.247620,607.293030 
	C637.716736,609.014709 634.367920,606.534729 629.822266,598.607605 
	C625.127258,599.315918 620.291382,600.045471 615.305725,600.797607 
	C616.889099,608.584839 620.784180,613.669983 627.143005,616.845032 
	C634.282043,620.409668 641.909790,620.992371 649.550964,619.487549 
	C659.162231,617.594849 664.338196,611.626343 665.502441,602.136597 
	C666.522583,593.821777 662.730225,587.415527 653.985168,583.103699 
	C650.712646,581.490173 647.245361,580.273193 643.877197,578.851196 
	C641.582092,577.882324 638.867615,577.342957 637.143677,575.745117 
	C635.455444,574.180298 633.615906,571.285278 633.991333,569.402588 
	C634.375732,567.475220 637.122192,565.264282 639.271240,564.608887 
	C643.129761,563.432190 646.259521,565.500916 648.684204,568.701843 
	C649.430664,569.687195 650.933289,570.917236 651.902832,570.773682 
	C655.953979,570.173828 659.934082,569.094055 663.934448,568.191406 
	C661.564453,558.148315 653.135620,552.688354 638.696289,552.096924 
z"/>
<path fill="#FCFCFC" opacity="1.000000" stroke="none" 
	d="
M465.855042,489.956818 
	C459.357819,489.934570 452.854218,489.734955 446.366150,489.967773 
	C443.301941,490.077789 441.604645,488.946899 439.984436,486.463287 
	C428.360413,468.644928 416.596191,450.918091 404.237976,432.194794 
	C404.237976,451.910278 404.237976,470.549683 404.237976,489.629822 
	C396.046448,489.629822 388.298126,489.629822 380.328613,488.849487 
	C380.054810,457.715912 380.002197,427.362610 379.949585,397.009338 
	C387.824310,396.725494 395.699493,396.297089 403.573303,396.320709 
	C404.695862,396.324066 406.005981,398.387451 406.901245,399.718140 
	C417.661835,415.712097 428.360596,431.747650 439.486572,448.292755 
	C440.593811,449.816681 441.289917,450.820221 442.608154,452.720551 
	C442.608154,443.705963 442.548798,435.809418 442.622711,427.914062 
	C442.722229,417.287628 442.924469,406.662170 443.082611,396.036285 
	C443.082611,396.036285 443.026947,396.000336 443.490112,396.037903 
	C451.297211,396.084961 458.641113,396.094452 465.985016,396.103912 
	C465.985016,396.103912 465.968567,396.026398 466.027527,396.494751 
	C466.102783,415.368042 466.157379,433.773041 466.122070,452.177856 
	C466.097931,464.770996 465.948456,477.363831 465.855042,489.956818 
z"/>
<path fill="#FCFCFC" opacity="1.000000" stroke="none" 
	d="
M262.141937,433.211243 
	C271.795502,388.084656 323.281158,385.317749 345.730865,407.835266 
	C359.028076,421.172638 364.121033,442.965118 357.139679,460.941620 
	C349.756775,479.952118 333.703705,491.091858 313.529968,491.945801 
	C279.741577,493.376068 257.162628,466.433472 262.141937,433.211243 
M332.959442,458.275085 
	C333.901276,455.803314 335.090118,453.395050 335.745117,450.849487 
	C340.144775,433.749878 329.043396,413.119659 307.458527,414.980377 
	C293.207825,416.208832 283.243500,430.029724 284.946503,446.547821 
	C286.163208,458.349304 294.208313,468.121674 304.869690,470.748413 
	C315.812622,473.444580 325.551788,469.296356 332.959442,458.275085 
z"/>
<path fill="#FCFCFC" opacity="1.000000" stroke="none" 
	d="
M676.350525,488.974152 
	C669.727722,489.772919 663.104980,490.571686 655.967407,491.432556 
	C655.576965,488.288208 655.280273,485.898834 654.995789,483.608307 
	C651.140381,485.849335 647.452820,488.790558 643.250671,490.278168 
	C632.780090,493.984863 623.602600,490.869843 615.949768,483.235809 
	C601.420227,468.742004 602.292480,440.128540 617.547424,426.376434 
	C627.508179,417.396973 639.978699,416.892914 651.286621,425.472534 
	C652.503845,426.341797 653.133545,426.775116 654.860901,427.963806 
	C654.860901,416.011902 654.860901,405.091339 654.860901,394.170837 
	C661.564148,394.139679 668.267334,394.108551 675.530273,394.512146 
	C676.108215,398.097656 676.135193,401.248383 676.143127,404.399200 
	C676.214172,432.590851 676.281860,460.782501 676.350525,488.974152 
M646.121826,471.050598 
	C653.871704,467.851776 655.501892,461.532928 655.097412,453.964661 
	C654.659607,445.772766 649.573792,439.963654 641.775391,439.191254 
	C634.743225,438.494720 629.435669,442.812927 627.409912,450.878784 
	C623.978943,464.540314 632.579346,474.332275 646.121826,471.050598 
z"/>
<path fill="#FCFCFC" opacity="1.000000" stroke="none" 
	d="
M759.211853,435.851379 
	C763.618591,444.206177 765.089172,452.704865 763.899231,461.973114 
	C747.924927,461.973114 732.131165,461.973114 715.836243,461.973114 
	C716.214722,466.958160 718.271912,470.783661 722.428589,472.491455 
	C729.694763,475.476868 736.983459,475.528839 743.489746,470.105988 
	C744.200317,469.513733 745.145935,468.760132 745.950867,468.795807 
	C751.550903,469.043976 757.142639,469.480927 762.814636,469.862579 
	C759.385986,484.149200 746.202148,492.634338 728.850769,492.136780 
	C711.801819,491.647858 697.929871,479.987335 695.036133,463.712921 
	C691.649719,444.666687 699.888184,428.447449 716.428772,421.596558 
	C732.199646,415.064484 748.874084,420.516907 759.211853,435.851379 
M737.787537,438.543640 
	C728.412598,433.658508 718.640869,437.399292 717.250610,446.703094 
	C721.558960,446.703094 725.825012,446.703064 730.091003,446.703064 
	C734.311829,446.703064 738.532593,446.703094 744.119995,446.703094 
	C741.798096,443.553314 740.106201,441.258148 737.787537,438.543640 
z"/>
<path fill="#FBFBFB" opacity="1.000000" stroke="none" 
	d="
M497.010254,425.992432 
	C508.224762,417.790314 525.881775,417.669495 536.687805,425.538330 
	C542.120728,429.494507 545.138977,434.733032 545.215332,442.186340 
	C539.658081,442.186340 534.215637,442.297882 528.786377,442.080414 
	C527.843201,442.042603 526.767212,440.752625 526.075195,439.805359 
	C523.085510,435.713104 519.084839,434.138947 514.332397,436.032104 
	C512.624756,436.712372 510.444733,438.697052 510.345184,440.209229 
	C510.249512,441.661987 512.277710,444.092133 513.879578,444.658081 
	C518.235352,446.197021 522.861267,446.969025 527.376770,448.058685 
	C535.420410,449.999817 542.608093,453.222351 545.810425,461.624268 
	C550.457947,473.818115 543.602234,487.252625 530.742676,490.683655 
	C521.190613,493.232239 511.589233,492.774231 502.355469,488.990692 
	C493.629242,485.415100 487.633636,477.005646 487.798157,468.301117 
	C493.730499,468.301117 499.687073,468.197235 505.632599,468.406036 
	C506.593872,468.439789 507.714905,469.712433 508.406403,470.669434 
	C511.994568,475.635162 518.242981,477.543182 523.286926,474.660309 
	C524.799927,473.795593 526.359924,471.781067 526.513672,470.161835 
	C526.635498,468.878662 524.927673,466.789612 523.526855,466.127075 
	C520.715149,464.797302 517.563416,464.179993 514.542480,463.301300 
	C510.562469,462.143616 506.492828,461.240662 502.602325,459.838165 
	C487.146454,454.266632 484.188110,437.138336 497.010254,425.992432 
z"/>
<path fill="#FBFBFB" opacity="1.000000" stroke="none" 
	d="
M566.776367,420.086639 
	C573.420471,420.104584 580.064575,420.122528 587.244263,420.573303 
	C587.864441,432.668823 587.949097,444.331512 588.033691,455.994202 
	C587.963745,456.751190 587.893738,457.508209 587.845337,459.097015 
	C587.915771,469.619141 587.964661,479.309448 588.013550,488.999756 
	C580.946838,489.207672 573.880188,489.415619 566.632385,488.884766 
	C566.462646,484.667175 566.468994,481.188324 566.486267,477.709564 
	C566.581482,458.501923 566.679382,439.294281 566.776367,420.086639 
z"/>
<path fill="#FBFBFB" opacity="1.000000" stroke="none" 
	d="
M589.114014,404.555878 
	C587.433289,411.835938 583.139404,415.274933 576.457703,415.040680 
	C570.646606,414.836945 565.767334,410.660095 564.976685,405.212341 
	C563.974976,398.310852 568.344177,392.619781 575.170044,391.935028 
	C583.380310,391.111328 588.773682,395.840576 589.114014,404.555878 
z"/>
<path fill="#13112C" opacity="1.000000" stroke="none" 
	d="
M676.695312,488.812622 
	C676.281860,460.782501 676.214172,432.590851 676.143127,404.399200 
	C676.135193,401.248383 676.108215,398.097656 675.991577,394.489258 
	C676.590698,395.148285 677.893494,396.262695 677.897522,397.381836 
	C678.005737,427.082703 677.986694,456.784119 677.937927,486.485352 
	C677.936707,487.207764 677.352478,487.929199 676.695312,488.812622 
z"/>
<path fill="#13112C" opacity="1.000000" stroke="none" 
	d="
M466.247375,489.852661 
	C465.948456,477.363831 466.097931,464.770996 466.122070,452.177856 
	C466.157379,433.773041 466.102783,415.368042 465.989624,396.506348 
	C466.591431,397.334290 467.894775,398.616577 467.899933,399.904053 
	C468.015259,428.708466 468.003204,457.513519 467.930298,486.318237 
	C467.927399,487.462738 467.088867,488.605164 466.247375,489.852661 
z"/>
<path fill="#13112C" opacity="1.000000" stroke="none" 
	d="
M442.698975,396.160370 
	C442.924469,406.662170 442.722229,417.287628 442.622711,427.914062 
	C442.548798,435.809418 442.608154,443.705963 442.608154,452.720551 
	C441.289917,450.820221 440.593811,449.816681 439.765411,448.468079 
	C440.087006,446.283508 440.919250,444.447113 440.934387,442.604034 
	C441.047607,428.808289 440.955536,415.010895 441.059570,401.214996 
	C441.071991,399.568420 441.877472,397.927826 442.698975,396.160370 
z"/>
<path fill="#13112C" opacity="1.000000" stroke="none" 
	d="
M379.682465,397.326294 
	C380.002197,427.362610 380.054810,457.715912 380.042236,488.534058 
	C379.651703,487.760315 379.044495,486.522156 379.042389,485.282959 
	C378.993652,456.713776 379.008118,428.144440 379.032318,399.575165 
	C379.032837,398.931091 379.282104,398.287231 379.682465,397.326294 
z"/>
<path fill="#13112C" opacity="1.000000" stroke="none" 
	d="
M566.377625,420.283264 
	C566.679382,439.294281 566.581482,458.501923 566.486267,477.709564 
	C566.468994,481.188324 566.462646,484.667175 566.333374,488.606750 
	C565.811218,487.702545 565.060059,486.338898 565.054993,484.972443 
	C564.979126,464.703339 564.985229,444.433777 565.043701,424.164581 
	C565.047241,422.935455 565.653198,421.708099 566.377625,420.283264 
z"/>
<path fill="#13112C" opacity="1.000000" stroke="none" 
	d="
M588.303711,455.679077 
	C587.949097,444.331512 587.864441,432.668823 587.686768,420.551392 
	C588.051880,420.913696 588.910889,421.732239 588.907776,422.547607 
	C588.866699,433.486664 588.705261,444.425262 588.303711,455.679077 
z"/>
<path fill="#13112C" opacity="1.000000" stroke="none" 
	d="
M654.449097,394.331848 
	C654.860901,405.091339 654.860901,416.011902 654.860901,427.963806 
	C653.133545,426.775116 652.503845,426.341797 651.596313,425.561157 
	C651.879333,423.614777 652.882263,422.027283 652.924255,420.414734 
	C653.105042,413.482910 652.937256,406.542664 653.051941,399.608063 
	C653.080200,397.898010 653.693115,396.197693 654.449097,394.331848 
z"/>
<path fill="#13112C" opacity="1.000000" stroke="none" 
	d="
M588.286987,488.686493 
	C587.964661,479.309448 587.915771,469.619141 587.947754,459.466431 
	C588.351624,462.050262 588.933716,465.095612 588.944702,468.143005 
	C588.968994,474.885864 588.706177,481.629761 588.286987,488.686493 
z"/>
<path fill="#13112C" opacity="1.000000" stroke="none" 
	d="
M465.690918,395.806091 
	C458.641113,396.094452 451.297211,396.084961 443.485626,396.070740 
	C450.477570,395.880066 457.937225,395.694183 465.690918,395.806091 
z"/>
<path fill="#FDFBFB" opacity="1.000000" stroke="none" 
	d="
M595.035034,580.130127 
	C590.914978,593.343262 586.889404,606.166992 582.849854,619.035217 
	C578.207214,619.035217 573.901001,619.035217 569.261353,619.035217 
	C564.911255,604.677307 560.547424,590.274231 556.183655,575.871094 
	C555.727844,575.879272 555.272034,575.887390 554.816223,575.895569 
	C551.279785,588.993713 547.546570,602.044067 544.340515,615.222595 
	C543.504456,618.659119 542.150757,619.438843 539.013977,619.213318 
	C535.559143,618.964966 532.072693,619.156677 528.449280,619.156677 
	C521.627625,597.000427 514.898926,575.145996 508.069427,552.964355 
	C513.437012,552.964355 518.236389,552.964355 523.445557,552.964355 
	C527.606995,566.869446 531.773071,580.789795 536.355103,596.099915 
	C540.922363,580.887695 545.062195,567.099304 549.265198,553.100220 
	C553.616455,553.100220 557.908752,553.100220 562.853638,553.100220 
	C566.955383,566.471558 571.127441,580.072266 575.725586,595.061890 
	C579.917297,580.375244 583.765808,566.891357 587.721680,553.031128 
	C592.501282,553.031128 597.581726,553.031128 603.481628,553.031128 
	C600.626282,562.162476 597.877869,570.951599 595.035034,580.130127 
z"/>
<path fill="#FDFBFB" opacity="1.000000" stroke="none" 
	d="
M395.932617,572.044312 
	C400.846954,579.276123 405.582153,586.195679 410.317383,593.115234 
	C410.624023,593.015381 410.930664,592.915466 411.237305,592.815613 
	C411.237305,579.791016 411.237305,566.766418 411.237305,553.409180 
	C416.255951,553.409180 420.809326,553.409180 425.685608,553.409180 
	C425.685608,575.120178 425.685608,596.832947 425.685608,619.186279 
	C421.592957,619.186279 417.466187,619.464417 413.414795,619.033691 
	C412.017273,618.885132 410.478790,617.192078 409.562958,615.829285 
	C400.940552,602.998901 392.439087,590.087219 383.216278,576.162659 
	C383.216278,590.989807 383.216278,604.751404 383.216278,618.847229 
	C377.924652,618.847229 373.231628,618.847229 368.320190,618.847229 
	C368.320190,597.067627 368.320190,575.473816 368.320190,553.078430 
	C372.837677,553.078430 377.429321,552.891174 381.984802,553.213806 
	C383.085358,553.291748 384.262909,554.917725 385.068878,556.067505 
	C388.696564,561.242615 392.203217,566.502625 395.932617,572.044312 
z"/>
<path fill="#FDFBFB" opacity="1.000000" stroke="none" 
	d="
M483.938354,619.197449 
	C472.490784,619.197144 461.535217,619.197144 450.304413,619.197144 
	C450.304413,597.071350 450.304413,575.349365 450.304413,553.336243 
	C464.278381,553.336243 478.163025,553.336243 492.333496,553.336243 
	C492.333496,557.718445 492.333496,561.967712 492.333496,566.638062 
	C483.293243,566.638062 474.395233,566.638062 465.202209,566.638062 
	C465.202209,570.785339 465.202209,574.525696 465.202209,578.781128 
	C473.210327,578.781128 481.279114,578.781128 489.604767,578.781128 
	C489.604767,583.382812 489.604767,587.486938 489.604767,592.034973 
	C481.645294,592.034973 473.583557,592.034973 465.211182,592.034973 
	C465.211182,596.701599 465.211182,600.932983 465.211182,605.706787 
	C474.229492,605.706787 483.144775,605.706787 492.322235,605.706787 
	C492.322235,610.327820 492.322235,614.415222 492.322235,619.197754 
	C489.621033,619.197754 487.025665,619.197754 483.938354,619.197449 
z"/>
<path fill="#FDFBFB" opacity="1.000000" stroke="none" 
	d="
M639.137085,552.083374 
	C653.135620,552.688354 661.564453,558.148315 663.934448,568.191406 
	C659.934082,569.094055 655.953979,570.173828 651.902832,570.773682 
	C650.933289,570.917236 649.430664,569.687195 648.684204,568.701843 
	C646.259521,565.500916 643.129761,563.432190 639.271240,564.608887 
	C637.122192,565.264282 634.375732,567.475220 633.991333,569.402588 
	C633.615906,571.285278 635.455444,574.180298 637.143677,575.745117 
	C638.867615,577.342957 641.582092,577.882324 643.877197,578.851196 
	C647.245361,580.273193 650.712646,581.490173 653.985168,583.103699 
	C662.730225,587.415527 666.522583,593.821777 665.502441,602.136597 
	C664.338196,611.626343 659.162231,617.594849 649.550964,619.487549 
	C641.909790,620.992371 634.282043,620.409668 627.143005,616.845032 
	C620.784180,613.669983 616.889099,608.584839 615.305725,600.797607 
	C620.291382,600.045471 625.127258,599.315918 629.822266,598.607605 
	C634.367920,606.534729 637.716736,609.014709 643.247620,607.293030 
	C645.885803,606.471863 648.920227,604.162048 649.994263,601.737549 
	C651.527405,598.276978 648.321960,595.889343 645.435242,594.491821 
	C641.708130,592.687622 637.742249,591.373352 633.867859,589.877502 
	C621.375244,585.054321 616.776245,578.947327 618.062378,568.857666 
	C619.262451,559.442932 626.475586,553.583740 639.137085,552.083374 
z"/>
<path fill="#242342" opacity="1.000000" stroke="none" 
	d="
M332.783386,458.604553 
	C325.551788,469.296356 315.812622,473.444580 304.869690,470.748413 
	C294.208313,468.121674 286.163208,458.349304 284.946503,446.547821 
	C283.243500,430.029724 293.207825,416.208832 307.458527,414.980377 
	C329.043396,413.119659 340.144775,433.749878 335.745117,450.849487 
	C335.090118,453.395050 333.901276,455.803314 332.783386,458.604553 
z"/>
<path fill="#242342" opacity="1.000000" stroke="none" 
	d="
M645.744934,471.187683 
	C632.579346,474.332275 623.978943,464.540314 627.409912,450.878784 
	C629.435669,442.812927 634.743225,438.494720 641.775391,439.191254 
	C649.573792,439.963654 654.659607,445.772766 655.097412,453.964661 
	C655.501892,461.532928 653.871704,467.851776 645.744934,471.187683 
z"/>
<path fill="#242342" opacity="1.000000" stroke="none" 
	d="
M738.100952,438.753296 
	C740.106201,441.258148 741.798096,443.553314 744.119995,446.703094 
	C738.532593,446.703094 734.311829,446.703064 730.091003,446.703064 
	C725.825012,446.703064 721.558960,446.703094 717.250610,446.703094 
	C718.640869,437.399292 728.412598,433.658508 738.100952,438.753296 
z"/>
</svg>